<mxfile host="app.diagrams.net" modified="2024-06-20T01:19:48.456Z" agent="Mozilla/5.0 (Windows NT 10.0; Win64; x64) AppleWebKit/537.36 (KHTML, like Gecko) Chrome/126.0.0.0 Safari/537.36" etag="dBoTEiUjFl0pSowiUzau" version="24.5.5" type="github">
  <diagram id="C5RBs43oDa-KdzZeNtuy" name="Page-1">
    <mxGraphModel dx="1956" dy="1040" grid="1" gridSize="10" guides="1" tooltips="1" connect="1" arrows="1" fold="1" page="1" pageScale="1" pageWidth="827" pageHeight="1169" math="0" shadow="0">
      <root>
        <mxCell id="WIyWlLk6GJQsqaUBKTNV-0" />
        <mxCell id="WIyWlLk6GJQsqaUBKTNV-1" parent="WIyWlLk6GJQsqaUBKTNV-0" />
        <mxCell id="WIyWlLk6GJQsqaUBKTNV-2" value="" style="rounded=0;html=1;jettySize=auto;orthogonalLoop=1;fontSize=11;endArrow=block;endFill=0;endSize=8;strokeWidth=1;shadow=0;labelBackgroundColor=none;edgeStyle=orthogonalEdgeStyle;" parent="WIyWlLk6GJQsqaUBKTNV-1" edge="1">
          <mxGeometry relative="1" as="geometry">
            <mxPoint x="414" y="110" as="sourcePoint" />
            <mxPoint x="414" y="160" as="targetPoint" />
          </mxGeometry>
        </mxCell>
        <mxCell id="pRnDTEXV67lpXh-zUZaD-8" value="" style="edgeStyle=orthogonalEdgeStyle;rounded=0;orthogonalLoop=1;jettySize=auto;html=1;" edge="1" parent="WIyWlLk6GJQsqaUBKTNV-1" source="WIyWlLk6GJQsqaUBKTNV-7" target="pRnDTEXV67lpXh-zUZaD-2">
          <mxGeometry relative="1" as="geometry" />
        </mxCell>
        <mxCell id="WIyWlLk6GJQsqaUBKTNV-7" value="Definir plataforma de desarrollo, entorno de programación y lenguaje" style="rounded=1;whiteSpace=wrap;html=1;fontSize=12;glass=0;strokeWidth=1;shadow=0;" parent="WIyWlLk6GJQsqaUBKTNV-1" vertex="1">
          <mxGeometry x="140" y="250" width="170" height="60" as="geometry" />
        </mxCell>
        <mxCell id="pRnDTEXV67lpXh-zUZaD-12" style="edgeStyle=orthogonalEdgeStyle;rounded=0;orthogonalLoop=1;jettySize=auto;html=1;exitX=0.5;exitY=1;exitDx=0;exitDy=0;entryX=0.5;entryY=0;entryDx=0;entryDy=0;" edge="1" parent="WIyWlLk6GJQsqaUBKTNV-1" source="WIyWlLk6GJQsqaUBKTNV-11" target="pRnDTEXV67lpXh-zUZaD-9">
          <mxGeometry relative="1" as="geometry">
            <Array as="points">
              <mxPoint x="583" y="460" />
              <mxPoint x="414" y="460" />
            </Array>
          </mxGeometry>
        </mxCell>
        <mxCell id="WIyWlLk6GJQsqaUBKTNV-11" value="Contextualizar proyecto leyendo normas técnicas y comprender funcionamiento interno PandaPower" style="rounded=1;whiteSpace=wrap;html=1;fontSize=12;glass=0;strokeWidth=1;shadow=0;" parent="WIyWlLk6GJQsqaUBKTNV-1" vertex="1">
          <mxGeometry x="500" y="290" width="165" height="80" as="geometry" />
        </mxCell>
        <mxCell id="pRnDTEXV67lpXh-zUZaD-0" value="Inicio de proyecto" style="ellipse;whiteSpace=wrap;html=1;aspect=fixed;" vertex="1" parent="WIyWlLk6GJQsqaUBKTNV-1">
          <mxGeometry x="374" y="30" width="80" height="80" as="geometry" />
        </mxCell>
        <mxCell id="pRnDTEXV67lpXh-zUZaD-10" style="edgeStyle=orthogonalEdgeStyle;rounded=0;orthogonalLoop=1;jettySize=auto;html=1;exitX=0.5;exitY=1;exitDx=0;exitDy=0;" edge="1" parent="WIyWlLk6GJQsqaUBKTNV-1" source="pRnDTEXV67lpXh-zUZaD-2" target="pRnDTEXV67lpXh-zUZaD-9">
          <mxGeometry relative="1" as="geometry" />
        </mxCell>
        <mxCell id="pRnDTEXV67lpXh-zUZaD-2" value="Crear repositorios GitHub y sicronizarlos con compañeros y editor de código" style="whiteSpace=wrap;html=1;rounded=1;glass=0;strokeWidth=1;shadow=0;" vertex="1" parent="WIyWlLk6GJQsqaUBKTNV-1">
          <mxGeometry x="147.5" y="350" width="155" height="80" as="geometry" />
        </mxCell>
        <mxCell id="pRnDTEXV67lpXh-zUZaD-5" style="edgeStyle=orthogonalEdgeStyle;rounded=0;orthogonalLoop=1;jettySize=auto;html=1;exitX=0;exitY=0.5;exitDx=0;exitDy=0;entryX=0.5;entryY=0;entryDx=0;entryDy=0;" edge="1" parent="WIyWlLk6GJQsqaUBKTNV-1" source="pRnDTEXV67lpXh-zUZaD-4" target="WIyWlLk6GJQsqaUBKTNV-7">
          <mxGeometry relative="1" as="geometry" />
        </mxCell>
        <mxCell id="pRnDTEXV67lpXh-zUZaD-6" style="edgeStyle=orthogonalEdgeStyle;rounded=0;orthogonalLoop=1;jettySize=auto;html=1;exitX=1;exitY=0.5;exitDx=0;exitDy=0;entryX=0.5;entryY=0;entryDx=0;entryDy=0;" edge="1" parent="WIyWlLk6GJQsqaUBKTNV-1" source="pRnDTEXV67lpXh-zUZaD-4" target="WIyWlLk6GJQsqaUBKTNV-11">
          <mxGeometry relative="1" as="geometry" />
        </mxCell>
        <mxCell id="pRnDTEXV67lpXh-zUZaD-4" value="Definir compañeros de proyecto" style="rounded=1;whiteSpace=wrap;html=1;" vertex="1" parent="WIyWlLk6GJQsqaUBKTNV-1">
          <mxGeometry x="354" y="160" width="120" height="60" as="geometry" />
        </mxCell>
        <mxCell id="pRnDTEXV67lpXh-zUZaD-15" style="edgeStyle=orthogonalEdgeStyle;rounded=0;orthogonalLoop=1;jettySize=auto;html=1;exitX=0.5;exitY=1;exitDx=0;exitDy=0;entryX=0.5;entryY=0;entryDx=0;entryDy=0;" edge="1" parent="WIyWlLk6GJQsqaUBKTNV-1" source="pRnDTEXV67lpXh-zUZaD-9" target="pRnDTEXV67lpXh-zUZaD-13">
          <mxGeometry relative="1" as="geometry" />
        </mxCell>
        <mxCell id="pRnDTEXV67lpXh-zUZaD-16" style="edgeStyle=orthogonalEdgeStyle;rounded=0;orthogonalLoop=1;jettySize=auto;html=1;exitX=0.5;exitY=1;exitDx=0;exitDy=0;entryX=0.5;entryY=0;entryDx=0;entryDy=0;" edge="1" parent="WIyWlLk6GJQsqaUBKTNV-1" source="pRnDTEXV67lpXh-zUZaD-9" target="pRnDTEXV67lpXh-zUZaD-14">
          <mxGeometry relative="1" as="geometry" />
        </mxCell>
        <mxCell id="pRnDTEXV67lpXh-zUZaD-9" value="Comenzar desarrollo de simulaciones" style="rounded=1;whiteSpace=wrap;html=1;" vertex="1" parent="WIyWlLk6GJQsqaUBKTNV-1">
          <mxGeometry x="354" y="490" width="120" height="60" as="geometry" />
        </mxCell>
        <mxCell id="pRnDTEXV67lpXh-zUZaD-24" style="edgeStyle=orthogonalEdgeStyle;rounded=0;orthogonalLoop=1;jettySize=auto;html=1;exitX=0.5;exitY=1;exitDx=0;exitDy=0;entryX=0.5;entryY=0;entryDx=0;entryDy=0;" edge="1" parent="WIyWlLk6GJQsqaUBKTNV-1" source="pRnDTEXV67lpXh-zUZaD-13" target="pRnDTEXV67lpXh-zUZaD-17">
          <mxGeometry relative="1" as="geometry" />
        </mxCell>
        <mxCell id="pRnDTEXV67lpXh-zUZaD-13" value="SEP figura 1(a)" style="rounded=1;whiteSpace=wrap;html=1;" vertex="1" parent="WIyWlLk6GJQsqaUBKTNV-1">
          <mxGeometry x="220" y="610" width="120" height="60" as="geometry" />
        </mxCell>
        <mxCell id="pRnDTEXV67lpXh-zUZaD-26" style="edgeStyle=orthogonalEdgeStyle;rounded=0;orthogonalLoop=1;jettySize=auto;html=1;exitX=0.5;exitY=1;exitDx=0;exitDy=0;entryX=0.5;entryY=0;entryDx=0;entryDy=0;" edge="1" parent="WIyWlLk6GJQsqaUBKTNV-1" source="pRnDTEXV67lpXh-zUZaD-14" target="pRnDTEXV67lpXh-zUZaD-19">
          <mxGeometry relative="1" as="geometry" />
        </mxCell>
        <mxCell id="pRnDTEXV67lpXh-zUZaD-14" value="SEP figura 1(b)" style="rounded=1;whiteSpace=wrap;html=1;" vertex="1" parent="WIyWlLk6GJQsqaUBKTNV-1">
          <mxGeometry x="490" y="610" width="120" height="60" as="geometry" />
        </mxCell>
        <mxCell id="pRnDTEXV67lpXh-zUZaD-25" style="edgeStyle=orthogonalEdgeStyle;rounded=0;orthogonalLoop=1;jettySize=auto;html=1;exitX=0.5;exitY=1;exitDx=0;exitDy=0;entryX=0.5;entryY=0;entryDx=0;entryDy=0;" edge="1" parent="WIyWlLk6GJQsqaUBKTNV-1" source="pRnDTEXV67lpXh-zUZaD-17" target="pRnDTEXV67lpXh-zUZaD-18">
          <mxGeometry relative="1" as="geometry" />
        </mxCell>
        <mxCell id="pRnDTEXV67lpXh-zUZaD-17" value="Desarrollo analítico del SEP" style="rounded=1;whiteSpace=wrap;html=1;" vertex="1" parent="WIyWlLk6GJQsqaUBKTNV-1">
          <mxGeometry x="220" y="710" width="120" height="60" as="geometry" />
        </mxCell>
        <mxCell id="pRnDTEXV67lpXh-zUZaD-29" style="edgeStyle=orthogonalEdgeStyle;rounded=0;orthogonalLoop=1;jettySize=auto;html=1;exitX=0.5;exitY=1;exitDx=0;exitDy=0;entryX=0.5;entryY=0;entryDx=0;entryDy=0;" edge="1" parent="WIyWlLk6GJQsqaUBKTNV-1" source="pRnDTEXV67lpXh-zUZaD-18" target="pRnDTEXV67lpXh-zUZaD-21">
          <mxGeometry relative="1" as="geometry" />
        </mxCell>
        <mxCell id="pRnDTEXV67lpXh-zUZaD-18" value="Obtención de resultados del SEP" style="rounded=1;whiteSpace=wrap;html=1;" vertex="1" parent="WIyWlLk6GJQsqaUBKTNV-1">
          <mxGeometry x="220" y="800" width="120" height="60" as="geometry" />
        </mxCell>
        <mxCell id="pRnDTEXV67lpXh-zUZaD-27" style="edgeStyle=orthogonalEdgeStyle;rounded=0;orthogonalLoop=1;jettySize=auto;html=1;exitX=0.5;exitY=1;exitDx=0;exitDy=0;entryX=0.5;entryY=0;entryDx=0;entryDy=0;" edge="1" parent="WIyWlLk6GJQsqaUBKTNV-1" source="pRnDTEXV67lpXh-zUZaD-19" target="pRnDTEXV67lpXh-zUZaD-20">
          <mxGeometry relative="1" as="geometry" />
        </mxCell>
        <mxCell id="pRnDTEXV67lpXh-zUZaD-19" value="Desarrollo analítico del SEP" style="rounded=1;whiteSpace=wrap;html=1;" vertex="1" parent="WIyWlLk6GJQsqaUBKTNV-1">
          <mxGeometry x="490" y="710" width="120" height="60" as="geometry" />
        </mxCell>
        <mxCell id="pRnDTEXV67lpXh-zUZaD-28" style="edgeStyle=orthogonalEdgeStyle;rounded=0;orthogonalLoop=1;jettySize=auto;html=1;exitX=0.5;exitY=1;exitDx=0;exitDy=0;entryX=0.5;entryY=0;entryDx=0;entryDy=0;" edge="1" parent="WIyWlLk6GJQsqaUBKTNV-1" source="pRnDTEXV67lpXh-zUZaD-20" target="pRnDTEXV67lpXh-zUZaD-21">
          <mxGeometry relative="1" as="geometry" />
        </mxCell>
        <mxCell id="pRnDTEXV67lpXh-zUZaD-20" value="Obtención de resultados del SEP" style="rounded=1;whiteSpace=wrap;html=1;" vertex="1" parent="WIyWlLk6GJQsqaUBKTNV-1">
          <mxGeometry x="490" y="800" width="120" height="60" as="geometry" />
        </mxCell>
        <mxCell id="pRnDTEXV67lpXh-zUZaD-30" value="" style="edgeStyle=orthogonalEdgeStyle;rounded=0;orthogonalLoop=1;jettySize=auto;html=1;" edge="1" parent="WIyWlLk6GJQsqaUBKTNV-1" source="pRnDTEXV67lpXh-zUZaD-21" target="pRnDTEXV67lpXh-zUZaD-22">
          <mxGeometry relative="1" as="geometry" />
        </mxCell>
        <mxCell id="pRnDTEXV67lpXh-zUZaD-21" value="Creación de archivo README en repositorio" style="rounded=1;whiteSpace=wrap;html=1;" vertex="1" parent="WIyWlLk6GJQsqaUBKTNV-1">
          <mxGeometry x="354" y="900" width="120" height="60" as="geometry" />
        </mxCell>
        <mxCell id="pRnDTEXV67lpXh-zUZaD-31" value="" style="edgeStyle=orthogonalEdgeStyle;rounded=0;orthogonalLoop=1;jettySize=auto;html=1;" edge="1" parent="WIyWlLk6GJQsqaUBKTNV-1" source="pRnDTEXV67lpXh-zUZaD-22" target="pRnDTEXV67lpXh-zUZaD-23">
          <mxGeometry relative="1" as="geometry" />
        </mxCell>
        <mxCell id="pRnDTEXV67lpXh-zUZaD-22" value="Redacción informe de presentación del proyecto finalizado" style="rounded=1;whiteSpace=wrap;html=1;" vertex="1" parent="WIyWlLk6GJQsqaUBKTNV-1">
          <mxGeometry x="354" y="990" width="120" height="60" as="geometry" />
        </mxCell>
        <mxCell id="pRnDTEXV67lpXh-zUZaD-23" value="Fin de proyecto" style="ellipse;whiteSpace=wrap;html=1;" vertex="1" parent="WIyWlLk6GJQsqaUBKTNV-1">
          <mxGeometry x="374" y="1080" width="80" height="80" as="geometry" />
        </mxCell>
      </root>
    </mxGraphModel>
  </diagram>
</mxfile>
